<mxfile host="drawio-plugin" modified="2022-04-21T06:10:41.837Z" agent="5.0 (Macintosh; Intel Mac OS X 12_1_0) AppleWebKit/537.36 (KHTML, like Gecko) Chrome/89.0.4389.114 Safari/537.36" version="15.5.4" etag="_-9O84TplBVA_DMycgxR" type="embed"><diagram id="Ci0g-HrgkTSP0Iges99y" name="Page-1"><mxGraphModel dx="1760" dy="1657" grid="0" gridSize="10" guides="1" tooltips="1" connect="1" arrows="1" fold="1" page="1" pageScale="1" pageWidth="850" pageHeight="1100" math="0" shadow="0"><root><mxCell id="0"/><mxCell id="1" parent="0"/></root></mxGraphModel></diagram></mxfile>